<?xml version="1.0" encoding="UTF-8"?>
<!DOCTYPE svg PUBLIC "-//W3C//DTD SVG 1.1//EN" "http://www.w3.org/Graphics/SVG/1.1/DTD/svg11.dtd">
<!-- Creator: CorelDRAW (Evaluation Version) -->
<svg xmlns="http://www.w3.org/2000/svg" xml:space="preserve" width="133.703mm" height="33.161mm" version="1.1" style="shape-rendering:geometricPrecision; text-rendering:geometricPrecision; image-rendering:optimizeQuality; fill-rule:evenodd; clip-rule:evenodd"
viewBox="0 0 13370.28 3316.1"
 xmlns:xlink="http://www.w3.org/1999/xlink"
 xmlns:xodm="http://www.corel.com/coreldraw/odm/2003">
 <defs>
  <style type="text/css">
   <![CDATA[
    .fil0 {fill:#99C333;fill-rule:nonzero}
   ]]>
  </style>
 </defs>
 <g id="Layer_x0020_1">
  <metadata id="CorelCorpID_0Corel-Layer"/>
  <path class="fil0" d="M6036.38 838.79c-56.02,0 -107.81,-10.51 -155.36,-31.5 -47.63,-20.99 -90.28,-50.38 -128.1,-88.19 -37.78,-37.79 -67.17,-81.18 -88.16,-130.14 -20.99,-48.97 -31.5,-101.46 -31.5,-157.48 0,-53.17 10.51,-104.28 31.5,-153.29 20.99,-48.96 50.38,-92.35 88.16,-130.17 37.82,-37.82 80.47,-67.2 128.1,-88.16 47.55,-21.03 99.34,-31.5 155.36,-31.5 53.16,0 104.28,10.47 153.28,31.5 48.97,20.96 92.36,50.34 130.18,88.16 37.82,37.82 67.2,81.21 88.19,130.17 20.99,49.01 31.47,100.12 31.47,153.29 0,56.02 -10.48,108.51 -31.47,157.48 -20.99,48.96 -50.37,92.35 -88.19,130.14 -37.82,37.81 -81.21,67.2 -130.18,88.19 -49,20.99 -100.12,31.5 -153.28,31.5z"/>
  <path class="fil0" d="M7276.71 838.79c-56.05,0 -107.77,-10.51 -155.36,-31.5 -47.66,-20.99 -90.31,-50.38 -128.09,-88.19 -37.79,-37.79 -67.17,-81.18 -88.16,-130.14 -21.03,-48.97 -31.51,-101.46 -31.51,-157.48 0,-53.17 10.48,-104.28 31.51,-153.29 20.99,-48.96 50.37,-92.35 88.16,-130.17 37.78,-37.82 80.43,-67.2 128.09,-88.16 47.59,-21.03 99.31,-31.5 155.36,-31.5 53.17,0 104.25,10.47 153.25,31.5 49,20.96 92.39,50.34 130.17,88.16 37.86,37.82 67.24,81.21 88.2,130.17 21.02,49.01 31.5,100.12 31.5,153.29 0,56.02 -10.48,108.51 -31.5,157.48 -20.96,48.96 -50.34,92.35 -88.2,130.14 -37.78,37.81 -81.17,67.2 -130.17,88.19 -49,20.99 -100.08,31.5 -153.25,31.5z"/>
  <path class="fil0" d="M2791.99 1111.31l544.76 0c191.56,0 307.37,94.37 347.45,283.11 217.31,-223.06 456.11,-334.58 716.35,-334.58 471.84,0 707.74,294.57 707.74,883.64l0 1321.15 -420.37 0c-168.77,0 -289.52,-38.59 -362.44,-115.81 -72.92,-77.19 -109.4,-195.83 -109.4,-356.03l0 -793.57c0,-148.62 -61.52,-223.03 -184.43,-223.03 -117.3,0 -233.08,78.67 -347.45,235.94l0 1252.5 -892.21 0 0 -2153.32z"/>
  <path class="fil0" d="M6883.72 2363.85l0 -351.72c-31.51,-74.36 -77.23,-135.82 -137.27,-184.46 -60.04,-48.58 -131.55,-72.92 -214.45,-72.92 -77.26,0 -144.46,33.65 -201.61,100.78 -57.26,67.24 -85.84,178.02 -85.84,332.46 0,288.86 100.09,433.21 300.29,433.21 157.23,0 270.23,-85.76 338.88,-257.35zm883.64 -1252.54l0 1569.94c0,234.56 48.57,428.94 145.83,583.38l-810.71 0c-111.52,-45.68 -184.47,-132.96 -218.76,-261.65 -165.88,208.77 -386.05,313.13 -660.58,313.13 -254.56,0 -458.29,-101.46 -611.26,-304.52 -153,-203.03 -229.48,-477.59 -229.48,-823.6 0,-360.32 77.19,-638.42 231.63,-834.32 154.42,-195.82 358.85,-293.83 613.38,-293.83 134.41,0 260.21,31.51 377.47,94.37 117.27,62.94 210.19,140.13 278.84,231.64l85.79 -274.54 797.85 0z"/>
  <path class="fil0" d="M9070.9 2423.89l0 840.74 -892.24 0 0 -3011.2 420.37 0c168.7,0 289.56,38.59 362.48,115.82 72.92,77.18 109.39,195.89 109.39,356.02l0 1046.62c5.68,0 18.53,0 38.56,0 20.01,0 31.47,-1.37 34.33,-4.27l570.51 -656.31 956.56 0 -591.96 660.58c-102.94,111.55 -197.31,194.52 -283.07,248.82 74.29,42.86 135.75,102.94 184.43,180.12 48.58,77.26 82.16,148.03 100.79,212.38 18.55,64.31 49.32,120.79 92.25,169.4 42.9,48.65 100.05,72.92 171.56,72.92 85.79,0 160.12,-40.01 223.02,-120.09 57.19,105.84 85.83,217.35 85.83,334.58 0,145.84 -43.64,256.68 -130.84,332.42 -87.28,75.74 -199.46,113.67 -336.73,113.67 -154.41,0 -283.1,-31.51 -386.04,-94.34 -102.94,-62.9 -178.02,-138.71 -225.22,-227.36 -47.16,-88.59 -87.27,-177.27 -120.08,-265.96 -32.92,-88.62 -70.77,-164.4 -113.67,-227.33 -42.9,-62.87 -98.67,-94.37 -167.28,-94.37 -40.12,0 -74.44,5.75 -102.95,17.14z"/>
  <path class="fil0" d="M11751.35 2423.89l0 840.74 -892.21 0 0 -3011.2 420.33 0c168.7,0 289.56,38.59 362.51,115.82 72.89,77.18 109.37,195.89 109.37,356.02l0 1046.62c5.68,0 18.55,0 38.59,0 19.97,0 31.43,-1.37 34.32,-4.27l570.48 -656.31 956.56 0 0 0.03 -591.96 660.55c-102.94,111.55 -197.28,194.52 -283.07,248.82 74.29,42.86 135.78,102.94 184.43,180.12 48.58,77.26 82.2,148.03 100.82,212.38 18.53,64.31 49.29,120.79 92.22,169.4 42.9,48.65 100.05,72.92 171.56,72.92 85.79,0 160.12,-40.01 223.06,-120.09 57.18,105.84 85.79,217.35 85.79,334.58 0,145.84 -43.64,256.68 -130.84,332.42 -87.24,75.74 -199.46,113.67 -336.73,113.67 -154.41,0 -283.1,-31.51 -386.04,-94.34 -102.94,-62.9 -178.01,-138.71 -225.22,-227.36 -47.16,-88.59 -87.24,-177.27 -120.08,-265.96 -32.92,-88.62 -70.77,-164.4 -113.67,-227.33 -42.89,-62.87 -98.67,-94.37 -167.28,-94.37 -40.11,0 -74.4,5.75 -102.94,17.14z"/>
  <path class="fil0" d="M2166.16 1688.25c-7.2,-5.08 -13.76,-11.64 -19.75,-19.37 -105.7,-66.11 -212.06,-128.52 -319.02,-186.83 -88.69,-47.66 -192.86,-55.56 -293.72,-16.51 -117.73,54.26 -276.65,55.63 -454.56,10.65 -171.59,-43.5 -343.36,-77.29 -514.52,-101.32 -56.06,-7.79 -78.22,-51.54 -55.6,-110.77 22.65,-59.16 75.03,-93.87 131.13,-85.33 171.27,25.89 343.07,61.59 514.63,106.96 9.35,2.47 28.08,7.44 46.78,12.59 12.59,-31.61 25.22,-63.18 37.81,-94.75 -187.07,-52.43 -374.54,-93.35 -561.44,-122.67 -56.06,-8.74 -78.32,-52.95 -55.67,-111.93 22.68,-58.92 75.11,-92.82 131.23,-83.36 187.01,31.36 374.48,74.33 561.45,128.8 12.63,-31.47 25.22,-62.94 37.78,-94.37 -9.35,-2.79 -28.01,-8.29 -46.74,-13.62 -171.42,-49.11 -343.25,-88.58 -514.7,-118.25 -56.1,-9.67 -78.36,-54.33 -55.71,-113.07 22.69,-58.63 75.18,-91.75 131.34,-81.42 171.49,31.58 343.32,72.92 514.67,123.9 168.24,50.13 288.96,147.85 357.22,269.77 47.94,92.88 129.36,157.23 225.32,188.52 85.27,27.06 170.11,56.73 254.53,88.48 95.53,-168.73 153.46,-365.41 153.46,-504.76 0,-174.41 -60.05,-291.71 -180.17,-351.75 -268.85,-137.27 -602.01,-205.88 -999.42,-205.88 -380.4,0 -674.22,80.82 -881.52,242.36 -207.36,161.57 -310.97,381.07 -310.97,658.42 0,265.93 117.58,576.51 306.32,739.53 41.62,35.98 86.74,65.48 135.39,91.05 35.28,16.37 70.56,32.39 105.87,47.94 30.98,11.96 63.25,23.08 97.02,33.62 65.89,-71.01 152.04,-117.54 258.62,-142.52 109.71,-25.79 230.75,-22.26 362.65,7.87 116.42,26.63 222.18,68.65 317.33,128.13 95.14,59.44 164.95,128.94 209.97,212.02 45.01,82.9 53.23,166.58 24.8,251.63 -28.47,84.81 -90.31,160.91 -186.23,224.16 -95.92,63.18 -206.27,104.46 -331.15,120.86 -124.96,16.44 -246.14,6.74 -363.26,-28.01 -132.68,-39.41 -234.53,-104.35 -305.22,-188.88 -70.73,-84.59 -106.68,-177.55 -107.99,-276.4 -128.02,-41.24 -256.01,-88.12 -383.64,-139.7 -78.99,200.27 -136.18,457.48 -136.18,600.18 0,94.37 21.42,172.3 64.32,233.75 42.89,61.53 111.51,113.7 205.91,156.6 208.7,94.37 503.27,141.54 883.64,141.54 892.21,0 1338.3,-315.95 1338.3,-947.99 0,-148.66 -27.2,-279.43 -81.49,-392.46 -54.37,-112.96 -137.27,-208.74 -248.82,-287.41z"/>
 </g>
</svg>
