<svg width="369" height="48" viewBox="0 0 369 48" fill="none" xmlns="http://www.w3.org/2000/svg">
<g clip-path="url(#clip0_3667_71983)">
<path fill-rule="evenodd" clip-rule="evenodd" d="M23.8727 40.8C27.1778 40.8 30.4087 39.8147 33.1567 37.9687C35.9048 36.1227 38.0467 33.4989 39.3115 30.4291C40.5763 27.3593 40.9072 23.9814 40.2625 20.7225C39.6177 17.4636 38.0261 14.4701 35.689 12.1206C33.352 9.77109 30.3744 8.17105 27.1328 7.52282C23.8912 6.87459 20.5312 7.20728 17.4777 8.47883C14.4242 9.75039 11.8143 11.9037 9.97809 14.6664C8.14188 17.4292 7.1618 20.6773 7.1618 24C7.1618 28.4556 8.92241 32.7288 12.0563 35.8794C15.1902 39.03 19.4407 40.8 23.8727 40.8ZM23.8727 48C28.5942 48 33.2098 46.5924 37.1356 43.9553C41.0615 41.3181 44.1213 37.5698 45.9282 33.1844C47.735 28.799 48.2078 23.9734 47.2866 19.3178C46.3655 14.6623 44.0919 10.3859 40.7532 7.02945C37.4146 3.67299 33.1608 1.38721 28.53 0.461164C23.8992 -0.464881 19.0992 0.0103988 14.737 1.8269C10.3748 3.6434 6.64643 6.71954 4.02327 10.6663C1.40011 14.6131 0 19.2533 0 24C0 30.3652 2.51515 36.4697 6.99214 40.9706C11.4691 45.4714 17.5412 48 23.8727 48Z" fill="#192BC2"/>
<path d="M65.6498 36C72.2421 36 77.5862 30.6274 77.5862 24C77.5862 17.3726 72.2421 12 65.6498 12C59.0576 12 53.7135 17.3726 53.7135 24C53.7135 30.6274 59.0576 36 65.6498 36Z" fill="#192BC2"/>
<path d="M356.29 33.3264V14.4H368.967V17.6976H360.267V22.224H368.312V25.5168H360.267V30.0336H369V33.3264H356.29Z" fill="#192435"/>
<path d="M335.172 33.3264V14.4H339.15V30.0336H347.209V33.3264H335.172Z" fill="#192435"/>
<path d="M325.843 21.0384H321.804C321.74 20.5501 321.586 20.078 321.35 19.6464C321.132 19.2421 320.837 18.8849 320.481 18.5952C320.116 18.2967 319.698 18.0704 319.249 17.928C318.767 17.7708 318.262 17.693 317.755 17.6976C316.853 17.6772 315.966 17.9316 315.21 18.4272C314.455 18.9468 313.87 19.6802 313.529 20.5344C313.103 21.6013 312.9 22.7451 312.933 23.8944C312.899 25.0562 313.102 26.2127 313.529 27.2928C313.86 28.1332 314.441 28.8508 315.192 29.348C315.943 29.8453 316.828 30.098 317.726 30.072C318.226 30.0769 318.724 30.004 319.202 29.856C319.644 29.7272 320.058 29.5172 320.424 29.2368C320.789 28.9591 321.095 28.6117 321.326 28.2144C321.565 27.8026 321.727 27.3504 321.804 26.88H325.824C325.717 27.7571 325.453 28.6075 325.046 29.3904C324.626 30.2026 324.063 30.9313 323.384 31.5408C322.657 32.1914 321.815 32.6993 320.901 33.0384C319.869 33.4181 318.778 33.6083 317.679 33.6C316.105 33.627 314.553 33.2327 313.181 32.4576C311.845 31.6761 310.761 30.5247 310.058 29.1408C309.253 27.5066 308.859 25.6983 308.912 23.8752C308.853 22.0458 309.25 20.2306 310.068 18.5952C310.78 17.2188 311.87 16.0774 313.21 15.3072C314.569 14.535 316.108 14.1407 317.669 14.1648C318.699 14.1612 319.722 14.3233 320.701 14.6448C321.607 14.9337 322.451 15.3912 323.188 15.9936C323.918 16.5811 324.519 17.3131 324.955 18.144C325.431 19.0434 325.732 20.0257 325.843 21.0384Z" fill="#192435"/>
<path d="M285.813 33.3264V14.4H293.233C294.489 14.3651 295.735 14.6283 296.871 15.168C297.839 15.6324 298.644 16.3826 299.177 17.3184C299.726 18.3143 300.001 19.4393 299.975 20.5776C300.007 21.7116 299.728 22.8327 299.168 23.8176C298.618 24.7424 297.8 25.4761 296.823 25.92C295.661 26.4309 294.401 26.6768 293.133 26.64H288.167V23.4144H292.493C293.144 23.437 293.793 23.3294 294.403 23.0976C294.873 22.9127 295.268 22.5747 295.525 22.1376C295.788 21.6614 295.917 21.122 295.897 20.5776C295.915 20.0242 295.787 19.4759 295.525 18.9888C295.258 18.5563 294.862 18.2202 294.393 18.0288C293.787 17.7821 293.137 17.666 292.483 17.688H289.814V33.3264H285.813ZM295.973 24.7248L300.648 33.3264H296.255L291.681 24.7248H295.973Z" fill="#192435"/>
<path d="M276.078 14.4V33.3264H272.101V14.4H276.078Z" fill="#192435"/>
<path d="M262.781 21.0384H258.78C258.718 20.5504 258.565 20.0783 258.331 19.6464C258.11 19.2429 257.813 18.886 257.457 18.5952C257.092 18.2967 256.674 18.0704 256.225 17.928C255.743 17.7705 255.238 17.6927 254.731 17.6976C253.829 17.6772 252.942 17.9316 252.186 18.4272C251.431 18.9468 250.846 19.6802 250.506 20.5344C250.079 21.6013 249.876 22.7451 249.909 23.8944C249.875 25.0562 250.078 26.2127 250.506 27.2928C250.852 28.1373 251.44 28.8591 252.196 29.3664C252.944 29.8446 253.816 30.09 254.702 30.072C255.204 30.0768 255.703 30.004 256.182 29.856C256.624 29.7253 257.038 29.5155 257.405 29.2368C257.758 28.9614 258.056 28.6209 258.283 28.2336C258.531 27.8173 258.699 27.3583 258.78 26.88H262.8C262.695 27.7575 262.431 28.6084 262.022 29.3904C261.602 30.2026 261.039 30.9313 260.36 31.5408C259.634 32.1903 258.793 32.6982 257.882 33.0384C256.838 33.4223 255.733 33.6125 254.621 33.6C253.046 33.6276 251.492 33.2333 250.119 32.4576C248.783 31.6761 247.699 30.5247 246.996 29.1408C246.196 27.5101 245.806 25.7071 245.86 23.8896C245.801 22.0602 246.198 20.245 247.015 18.6096C247.725 17.2271 248.816 16.0791 250.157 15.3024C251.518 14.5296 253.059 14.1353 254.621 14.16C255.649 14.1568 256.671 14.3188 257.648 14.64C258.554 14.9289 259.398 15.3864 260.136 15.9888C260.865 16.5763 261.466 17.3083 261.902 18.1392C262.376 19.0407 262.674 20.0247 262.781 21.0384Z" fill="#192435"/>
<path d="M236.779 23.8752C236.837 25.7055 236.436 27.5212 235.614 29.1552C234.898 30.5423 233.801 31.6935 232.453 32.472C231.073 33.2186 229.53 33.6094 227.963 33.6094C226.395 33.6094 224.852 33.2186 223.472 32.472C222.128 31.692 221.034 30.5409 220.321 29.1552C219.5 27.5204 219.098 25.7056 219.151 23.8752C219.095 22.0461 219.492 20.2317 220.307 18.5952C221.019 17.2112 222.113 16.063 223.458 15.288C224.837 14.5381 226.38 14.1454 227.948 14.1454C229.516 14.1454 231.06 14.5381 232.439 15.288C233.789 16.0596 234.887 17.2085 235.599 18.5952C236.427 20.2277 236.833 22.0436 236.779 23.8752ZM232.749 23.8752C232.779 22.7261 232.576 21.583 232.152 20.5152C231.817 19.6673 231.237 18.9399 230.486 18.4272C229.729 17.9623 228.859 17.7164 227.972 17.7164C227.085 17.7164 226.215 17.9623 225.458 18.4272C224.709 18.9434 224.126 19.6694 223.783 20.5152C223.369 21.5853 223.171 22.7275 223.2 23.8752C223.171 25.0229 223.369 26.1651 223.783 27.2352C224.125 28.0804 224.708 28.8051 225.458 29.3184C226.016 29.6942 226.649 29.9399 227.313 30.0374C227.977 30.135 228.655 30.0819 229.296 29.8822C229.937 29.6824 230.525 29.3411 231.018 28.883C231.51 28.425 231.895 27.862 232.143 27.2352C232.569 26.1681 232.776 25.0249 232.749 23.8752Z" fill="#192435"/>
<path d="M209.745 14.4V33.3264H206.312L198.143 21.4272H198.005V33.3264H194.028V14.4H197.518L205.634 26.2944H205.782V14.4H209.745Z" fill="#192435"/>
<path d="M168.264 33.3264V14.4H172.241V22.224H180.31V14.4H184.297V33.3264H180.329V25.5168H172.261V33.3264H168.264Z" fill="#192435"/>
<path d="M158.94 21.0384H154.919C154.848 20.5485 154.686 20.0764 154.442 19.6464C154.224 19.2421 153.928 18.8849 153.573 18.5952C153.207 18.2977 152.789 18.0714 152.341 17.928C151.859 17.7708 151.354 17.693 150.847 17.6976C149.945 17.6772 149.058 17.9316 148.302 18.4272C147.545 18.9455 146.96 19.6793 146.621 20.5344C146.192 21.6006 145.989 22.7449 146.024 23.8944C145.989 25.0564 146.192 26.2134 146.621 27.2928C146.966 28.1382 147.555 28.8604 148.311 29.3664C149.06 29.8446 149.932 30.0901 150.818 30.072C151.318 30.0769 151.816 30.004 152.293 29.856C152.735 29.7272 153.15 29.5173 153.516 29.2368C153.872 28.9629 154.172 28.6222 154.399 28.2336C154.637 27.8165 154.799 27.3596 154.876 26.8848H158.897C158.79 27.7619 158.526 28.6123 158.118 29.3952C157.699 30.2074 157.136 30.9361 156.457 31.5456C155.729 32.1962 154.887 32.7041 153.974 33.0432C152.949 33.4185 151.866 33.607 150.775 33.6C149.202 33.627 147.649 33.2327 146.277 32.4576C144.942 31.6761 143.858 30.5247 143.155 29.1408C142.355 27.5101 141.965 25.7071 142.019 23.8896C141.959 22.0602 142.357 20.245 143.174 18.6096C143.883 17.2262 144.974 16.0778 146.316 15.3024C147.675 14.5302 149.214 14.1359 150.775 14.16C151.805 14.1564 152.828 14.3185 153.807 14.64C154.713 14.9289 155.557 15.3864 156.294 15.9888C157.022 16.5777 157.623 17.3093 158.061 18.1392C158.534 19.0407 158.833 20.0247 158.94 21.0384Z" fill="#192435"/>
<path d="M120.056 33.3264V14.4H132.732V17.6976H124.033V22.224H132.078V25.5168H124.033V30.0336H132.766V33.3264H120.056Z" fill="#192435"/>
<path d="M95.6005 17.7168V14.4H111.046V17.6976H105.288V33.3264H101.359V17.7168H95.6005Z" fill="#192435"/>
</g>
<defs>
<clipPath id="clip0_3667_71983">
<rect width="369" height="48" fill="white"/>
</clipPath>
</defs>
</svg>
